<svg width="870" height="250" viewBox="0 0 870 250" fill="none" xmlns="http://www.w3.org/2000/svg">
<path d="M314.477 83.4317C314.477 88.3657 312.757 92.7249 309.315 96.281C305.874 99.9521 301.628 101.788 296.695 101.788C291.647 101.788 287.402 99.9521 283.96 96.281C280.518 92.7249 278.912 88.3657 278.912 83.4317C278.912 78.6126 280.518 74.2534 283.96 70.5823C287.402 66.9113 291.647 65.0751 296.695 65.0751C301.628 65.0751 305.874 66.9113 309.315 70.5823C312.757 74.2534 314.477 78.6126 314.477 83.4317ZM322.509 108.672V58.1913H314.477V66.9113C314.019 66.2216 313.446 65.6484 312.986 65.0751C308.168 59.7977 302.316 57.0433 295.432 57.0433C288.434 57.0433 282.583 59.7977 277.764 65.0751C273.175 70.3524 270.88 76.433 270.88 83.4317C270.88 90.5453 273.175 96.6259 277.764 101.788C282.583 107.181 288.434 109.82 295.432 109.82C302.316 109.82 308.168 107.181 312.986 101.788C313.446 101.33 314.019 100.755 314.477 100.067V108.672H322.509Z" fill="#1C3563"/>
<path d="M402.819 108.672H412.686L385.266 69.6642L412.686 30.6564H402.819L380.333 63.9271L357.846 30.6564H347.864L375.399 69.7791L347.979 108.672H357.846L380.333 75.3999L402.819 108.672Z" fill="#1C3563"/>
<path d="M487.489 82.2838C487.489 75.4 484.736 69.4344 479.459 64.272C474.297 59.338 468.101 56.8149 461.102 56.8149C453.759 56.8149 447.563 59.4529 442.401 64.6168C437.238 69.7792 434.714 75.9747 434.714 83.2019C434.714 90.5454 437.238 96.7409 442.401 101.788C444.81 104.198 447.563 106.033 450.776 107.411C453.989 108.787 457.775 109.475 462.249 109.475C466.723 109.475 471.084 108.099 475.443 105.344C479.802 102.592 483.015 98.6906 485.195 93.8716H476.016C474.182 96.2811 472.002 98.1173 469.363 99.4938C466.723 100.87 463.97 101.444 461.102 101.444C456.743 101.444 452.842 100.067 449.4 97.1992C445.958 94.4463 443.777 90.8888 443.089 86.5295H487.489V82.2838ZM478.999 79.6458H443.204C443.664 77.5811 444.467 75.6299 445.614 73.7951C449.285 67.8281 454.447 64.8453 461.102 64.8453C465.347 64.8453 469.133 66.2217 472.46 68.9761C475.901 71.8439 477.968 75.4 478.999 79.6458Z" fill="#1C3563"/>
<path d="M523.17 108.672V22.6248H515.14V108.672H523.17Z" fill="#1C3563"/>
<path d="M604.169 82.2838C604.169 75.4 601.416 69.4344 596.139 64.272C590.976 59.338 584.781 56.8149 577.782 56.8149C570.439 56.8149 564.243 59.4529 559.081 64.6168C553.918 69.7792 551.394 75.9747 551.394 83.2019C551.394 90.5454 553.918 96.7409 559.081 101.788C561.49 104.198 564.243 106.033 567.456 107.411C570.669 108.787 574.455 109.475 578.929 109.475C583.403 109.475 587.764 108.099 592.123 105.344C596.482 102.592 599.695 98.6906 601.875 93.8716H592.696C590.861 96.2811 588.682 98.1173 586.042 99.4938C583.403 100.87 580.65 101.444 577.782 101.444C573.423 101.444 569.522 100.067 566.079 97.1992C562.638 94.4463 560.457 90.8888 559.769 86.5295H604.169V82.2838ZM595.679 79.6458H559.884C560.344 77.5811 561.147 75.6299 562.293 73.7951C565.965 67.8281 571.127 64.8453 577.782 64.8453C582.027 64.8453 585.813 66.2217 589.14 68.9761C592.581 71.8439 594.647 75.4 595.679 79.6458Z" fill="#1C3563"/>
<path d="M657.748 68.6312V58.1914C656.142 57.5031 654.421 57.1583 652.701 57.1583C646.964 57.1583 642.833 60.371 640.195 66.5665L639.85 68.6312V58.1914H631.82V108.672H639.85V83.4317C639.85 79.3009 640.768 75.6299 642.719 72.3023C643.636 70.5824 644.899 69.091 646.391 67.943C647.882 66.7964 649.717 66.1082 651.783 66.1082C653.848 66.1082 655.797 67.0249 657.748 68.6312Z" fill="#1C3563"/>
<path d="M722.111 83.4317C722.111 88.3657 720.391 92.7249 716.949 96.281C713.507 99.9521 709.262 101.788 704.329 101.788C699.28 101.788 695.036 99.9521 691.593 96.281C688.152 92.7249 686.546 88.3657 686.546 83.4317C686.546 78.6126 688.152 74.2534 691.593 70.5823C695.036 66.9113 699.28 65.0751 704.329 65.0751C709.262 65.0751 713.507 66.9113 716.949 70.5823C720.391 74.2534 722.111 78.6126 722.111 83.4317ZM730.143 108.672V58.1913H722.111V66.9113C721.653 66.2216 721.079 65.6484 720.62 65.0751C715.802 59.7977 709.95 57.0433 703.066 57.0433C696.068 57.0433 690.217 59.7977 685.398 65.0751C680.809 70.3524 678.514 76.433 678.514 83.4317C678.514 90.5453 680.809 96.6259 685.398 101.788C690.217 107.181 696.068 109.82 703.066 109.82C709.95 109.82 715.802 107.181 720.62 101.788C721.079 101.33 721.653 100.755 722.111 100.067V108.672H730.143Z" fill="#1C3563"/>
<path d="M755.498 65.6484H768.119V108.672H776.149V65.6484H788.655V58.1914H776.149V38.5732H768.119V58.1914H755.498V65.6484Z" fill="#1C3563"/>
<path d="M863.343 82.2838C863.343 75.4 860.59 69.4344 855.313 64.272C850.15 59.338 843.955 56.8149 836.956 56.8149C829.613 56.8149 823.417 59.4529 818.255 64.6168C813.092 69.7792 810.568 75.9747 810.568 83.2019C810.568 90.5454 813.092 96.7409 818.255 101.788C820.664 104.198 823.417 106.033 826.63 107.411C829.843 108.787 833.629 109.475 838.103 109.475C842.577 109.475 846.938 108.099 851.297 105.344C855.656 102.592 858.869 98.6906 861.049 93.8716H851.87C850.035 96.2811 847.856 98.1173 845.216 99.4938C842.577 100.87 839.824 101.444 836.956 101.444C832.597 101.444 828.696 100.067 825.253 97.1992C821.812 94.4463 819.631 90.8888 818.943 86.5295H863.343V82.2838ZM854.853 79.6458H819.058C819.518 77.5811 820.321 75.6299 821.467 73.7951C825.138 67.8281 830.301 64.8453 836.956 64.8453C841.2 64.8453 844.986 66.2217 848.314 68.9761C851.755 71.8439 853.821 75.4 854.853 79.6458Z" fill="#1C3563"/>
<path d="M314.821 196.077C314.821 201.011 313.101 205.37 309.659 208.926C306.217 212.597 301.972 214.433 297.039 214.433C291.99 214.433 287.746 212.597 284.303 208.926C280.862 205.37 279.256 201.011 279.256 196.077C279.256 191.258 280.862 186.898 284.303 183.227C287.746 179.556 291.99 177.72 297.039 177.72C301.972 177.72 306.217 179.556 309.659 183.227C313.101 186.898 314.821 191.258 314.821 196.077ZM322.853 221.317V170.836H314.821V179.556C314.363 178.867 313.789 178.293 313.33 177.72C308.512 172.443 302.66 169.688 295.776 169.688C288.777 169.688 282.927 172.443 278.108 177.72C273.519 182.997 271.224 189.078 271.224 196.077C271.224 203.19 273.519 209.271 278.108 214.433C282.927 219.826 288.777 222.465 295.776 222.465C302.66 222.465 308.512 219.826 313.33 214.433C313.789 213.975 314.363 213.4 314.821 212.712V221.317H322.853Z" fill="#1C3563"/>
<path d="M409.129 196.077C409.129 201.011 407.409 205.37 403.966 208.926C400.525 212.597 396.279 214.433 391.347 214.433C386.298 214.433 382.054 212.597 378.611 208.926C375.17 205.37 373.564 201.011 373.564 196.077C373.564 191.258 375.17 186.898 378.611 183.227C382.054 179.556 386.298 177.72 391.347 177.72C396.279 177.72 400.525 179.556 403.966 183.227C407.409 186.898 409.129 191.258 409.129 196.077ZM417.161 221.317V135.27H409.129V179.556C408.67 178.867 408.097 178.293 407.637 177.72C402.82 172.443 396.968 169.688 390.084 169.688C383.085 169.688 377.235 172.443 372.416 177.72C367.826 182.997 365.532 189.078 365.532 196.077C365.532 203.19 367.826 209.271 372.416 214.433C377.235 219.826 383.085 222.465 390.084 222.465C396.968 222.465 402.82 219.826 407.637 214.433C408.097 213.975 408.67 213.4 409.129 212.712V221.317H417.161Z" fill="#1C3563"/>
<path d="M479.114 226.136L502.29 170.836H493.57L479.114 208.353L464.544 170.836H455.825L479.114 226.136Z" fill="#1C3563"/>
<path d="M549.099 153.398C548.066 152.48 546.805 151.906 545.428 151.906C544.052 151.906 542.789 152.48 541.872 153.398C540.839 154.429 540.381 155.692 540.381 157.069C540.381 158.445 540.839 159.707 541.872 160.625C542.789 161.658 544.052 162.116 545.428 162.116C546.805 162.116 548.066 161.658 549.099 160.625C550.018 159.707 550.591 158.445 550.591 157.069C550.591 155.692 550.018 154.429 549.099 153.398ZM549.559 221.317V170.836H541.528V221.317H549.559Z" fill="#1C3563"/>
<path d="M603.367 214.203C601.417 212.827 599.925 210.532 599.122 207.205H590.632C592.353 217.646 599.007 222.808 610.71 222.808C613.463 222.808 615.987 222.579 618.397 221.89C620.806 221.202 622.871 220.284 624.821 219.022C628.722 216.383 630.673 212.369 630.673 206.976C630.673 201.469 628.149 197.568 622.871 195.044C620.692 194.012 618.282 193.209 615.643 192.634C613.12 192.061 610.71 191.373 608.53 190.684C606.236 189.996 604.4 189.078 602.908 188.045C601.417 187.013 600.614 185.407 600.614 183.112C600.614 180.818 601.532 179.097 603.367 178.063C605.203 176.917 607.382 176.344 609.792 176.344C612.316 176.344 614.496 176.917 616.217 177.835C617.937 178.753 619.315 180.588 620.117 183.342H628.722C627.69 178.293 625.509 174.737 622.298 172.786C618.97 170.721 614.954 169.688 610.022 169.688C605.203 169.688 600.957 171.066 597.401 173.589C593.96 176.229 592.124 180.015 592.124 185.062C592.124 187.472 592.812 189.651 594.073 191.488C595.451 193.437 597.401 194.929 599.925 196.077C602.22 197.11 604.629 197.913 607.153 198.601C609.677 199.174 612.087 199.863 614.381 200.551C619.544 202.272 622.183 204.797 622.183 208.008C622.183 213.515 618.512 216.155 611.168 216.155C608.071 216.155 605.433 215.58 603.367 214.203Z" fill="#1C3563"/>
<path d="M712.475 195.847C712.475 200.896 710.639 205.14 707.083 208.696C703.412 212.369 699.166 214.089 694.119 214.089C689.07 214.089 684.71 212.369 681.154 208.696C677.483 205.14 675.762 200.896 675.762 195.847C675.762 190.799 677.483 186.554 681.154 182.883C684.71 179.326 689.07 177.49 694.119 177.49C699.166 177.49 703.412 179.326 707.083 182.883C710.639 186.554 712.475 190.799 712.475 195.847ZM720.505 195.847C720.505 188.62 717.867 182.424 712.705 177.262C707.541 172.098 701.346 169.46 694.119 169.46C686.775 169.46 680.58 172.098 675.417 177.262C670.255 182.424 667.73 188.62 667.73 195.847C667.73 203.19 670.255 209.386 675.417 214.433C680.58 219.596 686.89 222.12 694.119 222.12C701.232 222.12 707.541 219.596 712.705 214.433C717.867 209.386 720.505 203.19 720.505 195.847Z" fill="#1C3563"/>
<path d="M789.114 181.276V170.836C787.508 170.148 785.787 169.803 784.067 169.803C778.33 169.803 774.199 173.016 771.561 179.211L771.216 181.276V170.836H763.186V221.317H771.216V196.077C771.216 191.946 772.134 188.275 774.085 184.947C775.002 183.227 776.265 181.736 777.756 180.588C779.248 179.441 781.083 178.753 783.149 178.753C785.214 178.753 787.163 179.67 789.114 181.276Z" fill="#1C3563"/>
<path d="M834.203 250L869.081 170.836H860.133L845.676 204.682L829.5 170.836H820.322L841.431 213.057L824.451 250H834.203Z" fill="#1C3563"/>
<mask id="mask0_21_195" style="mask-type:luminance" maskUnits="userSpaceOnUse" x="0" y="0" width="245" height="249">
<path d="M0 0H244.249V248.615H0V0Z" fill="white"/>
</mask>
<g mask="url(#mask0_21_195)">
<path d="M0 0H244.249V248.615H0V0Z" fill="#1C3563"/>
</g>
<path d="M173.587 196.725L186.77 163.45L199.845 196.725H173.587ZM218.45 223.302L186.77 146.015L154.983 223.302H163.063L170.823 203.635H202.61L210.371 223.302H218.45Z" fill="white"/>
<path d="M159.273 184.198V178.138H141.839V160.704H135.673V178.138H118.343V184.198H135.673V201.634H141.839V184.198H159.273Z" fill="white"/>
</svg>
