<svg width="250" height="255" viewBox="0 0 250 255" fill="none" xmlns="http://www.w3.org/2000/svg">
<mask id="mask0_1_19" style="mask-type:luminance" maskUnits="userSpaceOnUse" x="0" y="0" width="250" height="255">
<path d="M0 0H250V5.92523H0V0ZM244.074 5.92523H250V21.0259H244.074V5.92523ZM244.074 21.0259H250V248.543H244.074V21.0259ZM0 5.92523H5.92569V248.543H0V5.92523ZM0 248.543H250V254.468H0V248.543Z" fill="white"/>
</mask>
<g mask="url(#mask0_1_19)">
<path d="M0 0H250V254.468H0V0Z" fill="#1C3563"/>
</g>
<path d="M177.701 199.974L191.194 165.916L204.578 199.974H177.701ZM223.62 227.177L191.194 148.071L158.659 227.177H166.929L174.872 207.047H207.407L215.351 227.177H223.62Z" fill="#1C3563"/>
<path d="M163.05 187.153V180.951H145.204V163.105H138.893V180.951H121.156V187.153H138.893V204.998H145.204V187.153H163.05Z" fill="#1C3563"/>
</svg>
